# Blender v2.93.1 OBJ File: 'house2-split.blend'
# www.blender.org
mtllib bag1.mtl
o bag_Cube.001
v -1.660891 -2.912544 1.894700
v -1.502294 1.932898 2.125480
v -1.476292 -2.964197 -1.799892
v -1.207488 1.527497 -2.087265
v 1.714667 -2.894032 1.885603
v 1.325991 2.088954 2.194915
v 1.747199 -2.963580 -1.862487
v 1.259099 1.662310 -2.091243
v -2.133378 -2.847142 -0.065943
v -1.899997 1.615882 -0.132604
v 2.282277 -2.853176 -0.015940
v 1.742757 1.828213 -0.190310
v 0.837673 1.394348 -0.245132
v -1.130949 1.349158 -0.145304
vt 0.625000 0.125000
vt 0.375000 0.250000
vt 0.375000 0.125000
vt 0.625000 0.250000
vt 0.375000 0.500000
vt 0.625000 0.625000
vt 0.375000 0.750000
vt 0.375000 0.625000
vt 0.625000 1.000000
vt 0.375000 1.000000
vt 0.625000 0.621324
vt 0.625000 0.500000
vt 0.625000 0.613971
vt 0.625000 0.750000
vt 0.375000 0.000000
vt 0.625000 0.000000
vn -0.9332 0.0435 -0.3566
vn -0.0194 -0.0627 -0.9978
vn 0.9506 0.1202 0.2863
vn 0.0030 -0.0477 0.9989
vn -0.0539 0.9899 0.1314
vn -0.0351 0.9665 -0.2542
vn -0.4175 0.8925 -0.1705
vn 0.3192 0.9291 -0.1867
vn 0.9555 0.0869 -0.2821
vn -0.9703 0.0543 0.2356
vn -0.4336 0.9005 0.0317
vn 0.3279 0.9419 0.0736
vn -0.9415 0.0349 -0.3351
vn 0.0011 -0.0493 -0.9988
vn 0.9841 0.0665 0.1647
vn -0.0210 -0.0636 0.9978
vn -0.0182 0.9956 0.0921
vn -0.0466 0.9632 -0.2648
vn 0.9620 0.1014 -0.2536
vn -0.9851 0.0241 0.1701
usemtl None
s off
f 10/1/1 3/2/1 9/3/1
f 4/4/2 7/5/2 3/2/2
f 12/6/3 5/7/3 11/8/3
f 5/7/4 2/9/4 1/10/4
f 4/4/5 13/11/5 8/12/5
f 2/9/6 13/11/6 14/13/6
f 6/14/7 12/6/7 13/11/7
f 2/9/8 14/13/8 10/1/8
f 8/12/9 11/8/9 7/5/9
f 1/15/10 10/1/10 9/3/10
f 8/12/11 13/11/11 12/6/11
f 4/4/12 10/1/12 14/13/12
f 10/1/13 4/4/13 3/2/13
f 4/4/14 8/12/14 7/5/14
f 12/6/15 6/14/15 5/7/15
f 5/7/16 6/14/16 2/9/16
f 4/4/17 14/13/17 13/11/17
f 2/9/18 6/14/18 13/11/18
f 8/12/19 12/6/19 11/8/19
f 1/15/20 2/16/20 10/1/20
