# Blender v2.93.1 OBJ File: 'house2-split.blend'
# www.blender.org
mtllib blanket1.mtl
o blanket_Cube.015
v -5.883927 -0.279191 3.557752
v -5.883927 0.245164 3.557752
v -5.883927 -0.279191 -3.546088
v -5.883927 0.245164 -3.546088
v 5.320161 -0.279191 3.557752
v 5.320161 0.245164 3.557752
v 5.320161 -0.279191 -3.546088
v 5.320161 0.245164 -3.546088
v 3.041530 -0.279191 -3.546088
v 3.041530 0.245164 -3.546088
v 3.041530 -0.279191 3.557752
v 3.041530 0.245164 3.557752
v 3.041530 0.245164 -3.735406
v 5.320161 0.245164 -3.735406
v 5.320161 -0.279191 -3.825826
v 3.041530 -0.279191 -3.825826
v 5.320161 0.245164 3.695889
v 5.320161 -0.279191 3.786310
v 3.041530 -0.279191 3.786310
v 3.041530 0.245164 3.695889
v 3.041530 0.384931 -3.546088
v 5.320161 0.384931 -3.546088
v 5.320161 0.384931 3.557752
v 3.041530 0.384931 3.557752
vt 0.625000 0.000000
vt 0.375000 0.250000
vt 0.375000 0.000000
vt 0.625000 0.500000
vt 0.375000 0.750000
vt 0.375000 0.500000
vt 0.625000 0.800844
vt 0.375000 1.000000
vt 0.375000 0.800844
vt 0.324156 0.750000
vt 0.324156 0.500000
vt 0.875000 0.500000
vt 0.675844 0.750000
vt 0.675844 0.500000
vt 0.625000 0.500000
vt 0.625000 0.500000
vt 0.125000 0.750000
vt 0.125000 0.500000
vt 0.625000 0.750000
vt 0.375000 0.750000
vt 0.625000 0.250000
vt 0.375000 0.449156
vt 0.625000 0.449156
vt 0.375000 0.500000
vt 0.375000 0.449156
vt 0.375000 0.800844
vt 0.625000 0.800844
vt 0.324156 0.750000
vt 0.625000 0.800844
vt 0.675844 0.750000
vt 0.675844 0.500000
vt 0.625000 0.750000
vt 0.625000 0.449156
vt 0.625000 0.449156
vt 0.625000 0.750000
vt 0.625000 1.000000
vt 0.875000 0.750000
vt 0.324156 0.500000
vn -1.0000 0.0000 0.0000
vn 1.0000 0.0000 0.0000
vn 0.0000 0.0000 1.0000
vn 0.0000 -1.0000 0.0000
vn 0.0000 1.0000 0.0000
vn 0.0000 0.0000 -1.0000
vn 0.0000 0.1699 -0.9855
vn 0.0000 0.1699 0.9855
vn 0.0000 0.7029 0.7112
vn 0.0000 0.8045 -0.5939
usemtl Material.005
s off
f 2/1/1 3/2/1 1/3/1
f 8/4/2 5/5/2 7/6/2
f 12/7/3 1/8/3 11/9/3
f 7/6/4 11/10/4 9/11/4
f 4/12/5 12/13/5 10/14/5
f 8/4/2 14/15/2 22/16/2
f 9/11/4 1/17/4 3/18/4
f 5/5/2 17/19/2 18/20/2
f 4/21/6 9/22/6 3/2/6
f 13/23/7 15/24/7 16/25/7
f 9/11/4 15/24/4 7/6/4
f 9/22/1 13/23/1 16/25/1
f 7/6/2 14/15/2 8/4/2
f 17/19/8 19/26/8 18/20/8
f 11/9/1 20/27/1 12/7/1
f 5/5/4 19/28/4 11/10/4
f 12/7/1 20/27/1 24/29/1
f 17/19/9 24/30/9 20/27/9
f 21/31/5 23/32/5 22/16/5
f 12/13/1 21/31/1 10/14/1
f 13/23/1 10/33/1 21/34/1
f 17/19/2 6/35/2 23/32/2
f 8/4/2 23/32/2 6/35/2
f 13/23/10 22/16/10 14/15/10
f 2/1/1 4/21/1 3/2/1
f 8/4/2 6/35/2 5/5/2
f 12/7/3 2/36/3 1/8/3
f 7/6/4 5/5/4 11/10/4
f 4/12/5 2/37/5 12/13/5
f 9/11/4 11/10/4 1/17/4
f 5/5/2 6/35/2 17/19/2
f 4/21/6 10/33/6 9/22/6
f 13/23/7 14/15/7 15/24/7
f 9/11/4 16/38/4 15/24/4
f 9/22/1 10/33/1 13/23/1
f 7/6/2 15/24/2 14/15/2
f 17/19/8 20/27/8 19/26/8
f 11/9/1 19/26/1 20/27/1
f 5/5/4 18/20/4 19/28/4
f 17/19/9 23/32/9 24/30/9
f 21/31/5 24/30/5 23/32/5
f 12/13/1 24/30/1 21/31/1
f 8/4/2 22/16/2 23/32/2
f 13/23/10 21/31/10 22/16/10
