# Blender v2.93.1 OBJ File: 'house2-split.blend'
# www.blender.org
mtllib chair1.mtl
o chair_Cube.016
v -2.384291 -0.242309 2.228630
v -2.384291 0.398722 2.228630
v -2.651118 -0.277872 -3.114686
v -2.651118 0.434285 -3.114686
v 2.425370 -0.242309 2.228630
v 2.425370 0.398722 2.228630
v 2.692197 -0.277872 -3.114686
v 2.692197 0.434285 -3.114686
v -2.076465 0.328134 1.317436
v -2.076465 0.230553 1.909263
v -2.309138 5.266719 2.097987
v -2.309138 5.158311 2.755480
v 2.117544 0.328134 1.317435
v 2.117544 0.230553 1.909263
v 2.350216 5.266719 2.097987
v 2.350216 5.158311 2.755480
v -2.611032 1.587063 1.654984
v -2.611032 1.761446 1.665444
v -3.033628 1.886412 -3.335485
v -3.033628 2.060796 -3.325025
v -1.837772 1.590977 1.589738
v -1.837772 1.765360 1.600198
v -2.260368 1.890326 -3.400730
v -2.260368 2.064709 -3.390270
v 1.657103 1.593676 1.544739
v 1.657103 1.768059 1.555199
v 2.149187 1.892644 -3.439379
v 2.149187 2.067027 -3.428919
v 2.429379 1.589118 1.620712
v 2.429379 1.763502 1.631173
v 2.921463 1.888087 -3.363405
v 2.921463 2.062470 -3.352945
v -2.750956 -2.836715 -2.695922
v -2.750956 1.886488 -2.685493
v -2.786343 -2.342512 -3.113820
v -2.786343 1.911555 -3.103391
v -2.251601 -2.834188 -2.738056
v -2.251601 1.889015 -2.727627
v -2.286989 -2.339985 -3.155954
v -2.286989 1.914083 -3.145525
v 2.256990 -2.833927 -2.719023
v 2.256990 1.889277 -2.708595
v 2.300598 -2.338297 -3.160707
v 2.300598 1.915771 -3.150278
v 2.755522 -2.836869 -2.669980
v 2.755522 1.886334 -2.659551
v 2.799129 -2.341239 -3.111663
v 2.799129 1.912828 -3.101234
v -2.552541 -2.572505 1.545590
v -2.552541 1.629070 1.556019
v -2.587929 -2.962014 1.127692
v -2.587929 1.654137 1.138121
v -2.053187 -2.569977 1.503456
v -2.053187 1.631597 1.513885
v -2.088575 -2.959487 1.085558
v -2.088575 1.656664 1.095987
v 1.802372 -2.569715 1.499953
v 1.802372 1.631859 1.510382
v 1.845980 -2.957799 1.058269
v 1.845980 1.658352 1.068698
v 2.300904 -2.572657 1.548997
v 2.300904 1.628917 1.559425
v 2.344512 -2.960741 1.107313
v 2.344512 1.655411 1.117742
v -2.843503 -1.454236 -3.461147
v -2.825889 -2.546142 -3.132777
v -2.782047 -3.440614 -2.315470
v -2.697739 -3.798548 -0.743753
v -2.613430 -3.440614 0.827965
v -2.569589 -2.546142 1.645271
v -2.551975 -1.454236 1.973640
v -2.629832 -3.313781 0.522186
v -2.697739 -3.602079 -0.743753
v -2.765645 -3.313781 -2.009692
v -2.815356 -2.526135 -2.936424
v -2.833551 -1.450192 -3.275631
v -2.580122 -2.526136 1.448918
v -2.561926 -1.450193 1.788125
v -2.234600 -1.454236 -3.493809
v -2.216986 -2.546142 -3.165439
v -2.173144 -3.440614 -2.348133
v -2.088836 -3.798548 -0.776415
v -2.004527 -3.440614 0.795302
v -1.960686 -2.546142 1.612608
v -1.943072 -1.454236 1.940978
v -2.088836 -3.602078 -0.776415
v -1.971218 -2.526136 1.416256
v -2.156742 -3.313781 -2.042354
v -2.206453 -2.526135 -2.969086
v -2.224648 -1.450192 -3.308294
v -2.020929 -3.313781 0.489524
v -1.953023 -1.450193 1.755463
v 2.291523 -1.454236 -3.498274
v 2.258150 -2.546142 -3.171130
v 2.175088 -3.440614 -2.356875
v 2.015355 -3.798548 -0.791024
v 1.855623 -3.440614 0.774827
v 1.772560 -2.546142 1.589082
v 1.739188 -1.454236 1.916226
v 1.886698 -3.313781 0.470190
v 2.015355 -3.602078 -0.791024
v 2.144012 -3.313781 -2.052238
v 2.238195 -2.526135 -2.975511
v 2.272668 -1.450192 -3.313452
v 1.792515 -2.526136 1.393462
v 1.758042 -1.450193 1.731403
v 2.898152 -1.454236 -3.436392
v 2.864780 -2.546141 -3.109248
v 2.781718 -3.440614 -2.294992
v 2.621985 -3.798548 -0.729142
v 2.462252 -3.440614 0.836709
v 2.379190 -2.546142 1.650964
v 2.345818 -1.454236 1.978109
v 2.621985 -3.602078 -0.729142
v 2.399145 -2.526136 1.455345
v 2.750642 -3.313781 -1.990355
v 2.844825 -2.526135 -2.913628
v 2.879299 -1.450192 -3.251569
v 2.493328 -3.313780 0.532072
v 2.364671 -1.450193 1.793286
vt 0.625000 0.000000
vt 0.375000 0.250000
vt 0.375000 0.000000
vt 0.625000 0.250000
vt 0.375000 0.500000
vt 0.625000 0.500000
vt 0.375000 0.750000
vt 0.625000 0.750000
vt 0.375000 1.000000
vt 0.125000 0.750000
vt 0.125000 0.500000
vt 0.875000 0.500000
vt 0.625000 0.000000
vt 0.375000 0.250000
vt 0.375000 0.000000
vt 0.625000 0.250000
vt 0.375000 0.500000
vt 0.625000 0.500000
vt 0.375000 0.750000
vt 0.625000 0.750000
vt 0.375000 1.000000
vt 0.125000 0.750000
vt 0.125000 0.500000
vt 0.875000 0.500000
vt 0.625000 0.000000
vt 0.375000 0.250000
vt 0.375000 0.000000
vt 0.625000 0.500000
vt 0.375000 0.500000
vt 0.625000 0.750000
vt 0.375000 0.750000
vt 0.625000 1.000000
vt 0.375000 1.000000
vt 0.125000 0.750000
vt 0.125000 0.500000
vt 0.875000 0.500000
vt 0.625000 0.000000
vt 0.375000 0.250000
vt 0.375000 0.000000
vt 0.625000 0.250000
vt 0.375000 0.500000
vt 0.625000 0.500000
vt 0.375000 0.750000
vt 0.625000 0.750000
vt 0.375000 1.000000
vt 0.125000 0.500000
vt 0.125000 0.750000
vt 0.875000 0.500000
vt 0.625000 0.000000
vt 0.375000 0.250000
vt 0.375000 0.000000
vt 0.625000 0.250000
vt 0.375000 0.500000
vt 0.625000 0.750000
vt 0.375000 0.750000
vt 0.625000 1.000000
vt 0.375000 1.000000
vt 0.125000 0.500000
vt 0.125000 0.750000
vt 0.875000 0.500000
vt 0.625000 0.500000
vt 0.625000 0.000000
vt 0.375000 0.250000
vt 0.375000 0.000000
vt 0.625000 0.500000
vt 0.375000 0.500000
vt 0.625000 0.750000
vt 0.375000 0.750000
vt 0.375000 1.000000
vt 0.125000 0.750000
vt 0.125000 0.500000
vt 0.875000 0.500000
vt 0.375000 0.000000
vt 0.625000 0.250000
vt 0.375000 0.250000
vt 0.375000 0.500000
vt 0.625000 0.500000
vt 0.375000 0.750000
vt 0.625000 1.000000
vt 0.375000 1.000000
vt 0.125000 0.750000
vt 0.125000 0.500000
vt 0.875000 0.500000
vt 0.625000 0.750000
vt 0.375000 0.000000
vt 0.625000 0.250000
vt 0.375000 0.250000
vt 0.625000 0.500000
vt 0.375000 0.500000
vt 0.375000 0.750000
vt 0.625000 0.750000
vt 0.375000 1.000000
vt 0.125000 0.500000
vt 0.125000 0.750000
vt 0.875000 0.500000
vt 0.500000 0.666667
vt 0.500000 0.500000
vt 0.500000 0.666667
vt 0.750000 0.500000
vt 0.666667 0.500000
vt 0.750000 0.500000
vt 1.000000 0.500000
vt 1.000000 0.666667
vt 1.000000 0.500000
vt 1.000000 0.666667
vt 0.916667 0.500000
vt 0.833333 0.666667
vt 0.833333 0.500000
vt 0.750000 0.666667
vt 0.666667 0.666667
vt 0.583333 0.500000
vt 0.500000 0.500000
vt 0.583333 0.666667
vt 0.583333 0.500000
vt 0.666667 0.666667
vt 0.666667 0.500000
vt 0.833333 0.500000
vt 0.750000 0.666667
vt 0.916667 0.500000
vt 0.833333 0.666667
vt 0.916667 0.666667
vt 0.500000 0.666667
vt 0.500000 0.500000
vt 0.500000 0.666667
vt 0.750000 0.500000
vt 0.666667 0.500000
vt 0.750000 0.500000
vt 1.000000 0.500000
vt 1.000000 0.666667
vt 1.000000 0.500000
vt 1.000000 0.666667
vt 0.916667 0.500000
vt 0.833333 0.666667
vt 0.833333 0.500000
vt 0.666667 0.666667
vt 0.916667 0.666667
vt 0.583333 0.500000
vt 0.500000 0.500000
vt 0.583333 0.666667
vt 0.583333 0.500000
vt 0.666667 0.666667
vt 0.666667 0.500000
vt 0.750000 0.666667
vt 0.833333 0.666667
vt 0.833333 0.500000
vt 0.916667 0.666667
vt 0.916667 0.500000
vt 0.625000 1.000000
vt 0.875000 0.750000
vt 0.625000 1.000000
vt 0.875000 0.750000
vt 0.625000 0.250000
vt 0.875000 0.750000
vt 0.625000 1.000000
vt 0.875000 0.750000
vt 0.875000 0.750000
vt 0.625000 0.250000
vt 0.625000 1.000000
vt 0.875000 0.750000
vt 0.625000 0.000000
vt 0.875000 0.750000
vt 0.625000 0.000000
vt 0.625000 1.000000
vt 0.875000 0.750000
vt 0.916667 0.666667
vt 0.583333 0.666667
vt 0.750000 0.666667
vt 0.583333 0.666667
vn -0.9988 0.0000 0.0499
vn 0.0000 0.0000 -1.0000
vn 0.9988 0.0000 0.0499
vn 0.0000 0.0000 1.0000
vn 0.0000 -1.0000 0.0067
vn 0.0000 1.0000 0.0067
vn -0.9989 -0.0459 -0.0076
vn 0.0000 0.9867 0.1627
vn 0.9989 -0.0459 -0.0076
vn 0.0000 -0.9867 -0.1627
vn -0.0000 0.1561 -0.9877
vn 0.0000 -0.1692 0.9856
vn -0.9964 -0.0050 0.0841
vn -0.0842 0.0597 -0.9947
vn 0.9964 0.0050 -0.0841
vn 0.0842 -0.0597 0.9947
vn -0.0000 -0.9982 -0.0599
vn 0.0000 0.9982 0.0599
vn -0.9952 0.0059 -0.0979
vn 0.0981 0.0596 -0.9934
vn 0.9952 -0.0059 0.0979
vn -0.0981 -0.0596 0.9934
vn -0.9965 -0.0002 0.0842
vn -0.0841 0.0024 -0.9965
vn 0.9965 0.0002 -0.0842
vn 0.0841 -0.0022 0.9965
vn -0.0609 -0.6470 -0.7600
vn -0.9952 0.0002 -0.0980
vn 0.0979 0.0024 -0.9952
vn 0.9952 -0.0002 0.0980
vn -0.0979 -0.0022 0.9952
vn 0.0690 -0.6671 -0.7418
vn -0.9964 -0.0002 0.0846
vn -0.0841 0.0023 -0.9965
vn 0.9964 0.0002 -0.0846
vn 0.0841 -0.0025 0.9965
vn 0.0609 -0.7327 0.6778
vn -0.9951 0.0002 -0.0984
vn 0.0979 0.0022 -0.9952
vn 0.9951 -0.0002 0.0984
vn -0.0979 -0.0025 0.9952
vn -0.0688 -0.7528 0.6546
vn 0.0012 0.9998 0.0217
vn -0.9986 0.0000 0.0536
vn -0.0012 0.9998 -0.0217
vn -0.0511 -0.3011 -0.9522
vn -0.0119 -0.9751 -0.2214
vn 0.0119 -0.9751 0.2214
vn -0.0347 -0.7624 -0.6461
vn 0.0347 -0.7624 0.6461
vn 0.0511 -0.3011 0.9522
vn 0.0513 -0.2884 0.9561
vn 0.0395 -0.6751 0.7367
vn -0.0395 -0.6751 -0.7367
vn 0.9986 0.0000 -0.0536
vn -0.0513 -0.2884 -0.9561
vn -0.0022 0.9998 0.0216
vn -0.9948 0.0000 -0.1015
vn 0.0022 0.9998 -0.0216
vn 0.0968 -0.3011 -0.9487
vn 0.0225 -0.9751 -0.2206
vn -0.0225 -0.9751 0.2206
vn 0.0657 -0.7624 -0.6437
vn -0.0657 -0.7624 0.6437
vn -0.0968 -0.3011 0.9487
vn -0.0972 -0.2884 0.9526
vn -0.0749 -0.6751 0.7339
vn 0.0749 -0.6751 -0.7339
vn 0.9948 0.0000 0.1015
vn 0.0972 -0.2884 -0.9526
vn -0.9964 -0.0002 0.0844
vn 0.9964 0.0002 -0.0844
vn -0.9952 0.0002 -0.0982
vn 0.9952 -0.0002 0.0982
usemtl None
s off
f 2/1/1 3/2/1 1/3/1
f 4/4/2 7/5/2 3/2/2
f 8/6/3 5/7/3 7/5/3
f 6/8/4 1/9/4 5/7/4
f 7/5/5 1/10/5 3/11/5
f 4/12/6 6/8/6 8/6/6
f 10/13/7 11/14/7 9/15/7
f 12/16/8 15/17/8 11/14/8
f 16/18/9 13/19/9 15/17/9
f 14/20/10 9/21/10 13/19/10
f 15/17/11 9/22/11 11/23/11
f 12/24/12 14/20/12 16/18/12
f 18/25/13 19/26/13 17/27/13
f 19/26/14 24/28/14 23/29/14
f 23/29/15 22/30/15 21/31/15
f 21/31/16 18/32/16 17/33/16
f 23/29/17 17/34/17 19/35/17
f 20/36/18 22/30/18 24/28/18
f 26/37/19 27/38/19 25/39/19
f 28/40/20 31/41/20 27/38/20
f 32/42/21 29/43/21 31/41/21
f 30/44/22 25/45/22 29/43/22
f 27/46/17 29/43/17 25/47/17
f 28/48/18 30/44/18 32/42/18
f 34/49/23 35/50/23 33/51/23
f 36/52/24 39/53/24 35/50/24
f 39/53/25 38/54/25 37/55/25
f 37/55/26 34/56/26 33/57/26
f 35/58/27 37/55/27 33/59/27
f 36/60/18 38/54/18 40/61/18
f 42/62/28 43/63/28 41/64/28
f 43/63/29 48/65/29 47/66/29
f 47/66/30 46/67/30 45/68/30
f 46/67/31 41/69/31 45/68/31
f 47/66/32 41/70/32 43/71/32
f 44/72/18 46/67/18 48/65/18
f 49/73/33 52/74/33 51/75/33
f 52/74/34 55/76/34 51/75/34
f 56/77/35 53/78/35 55/76/35
f 53/78/36 50/79/36 49/80/36
f 55/76/37 49/81/37 51/82/37
f 52/83/18 54/84/18 56/77/18
f 57/85/38 60/86/38 59/87/38
f 59/87/39 64/88/39 63/89/39
f 64/88/40 61/90/40 63/89/40
f 62/91/41 57/92/41 61/90/41
f 59/93/42 61/90/42 57/94/42
f 60/95/18 62/91/18 64/88/18
f 92/96/43 71/97/43 85/98/43
f 68/99/44 72/100/44 73/101/44
f 76/102/45 79/103/45 65/104/45
f 90/105/46 75/106/46 76/102/46
f 88/107/47 73/101/47 74/108/47
f 86/109/48 72/100/48 73/101/48
f 75/106/49 88/107/49 74/108/49
f 91/110/50 77/111/50 72/100/50
f 77/111/51 92/96/51 78/112/51
f 84/113/52 71/97/52 70/114/52
f 83/115/53 70/114/53 69/116/53
f 68/99/48 83/115/48 69/116/48
f 67/117/47 82/118/47 68/99/47
f 66/119/54 81/120/54 67/117/54
f 91/110/55 83/115/55 82/118/55
f 65/104/56 80/121/56 66/119/56
f 120/122/57 99/123/57 113/124/57
f 96/125/58 100/126/58 101/127/58
f 104/128/59 107/129/59 93/130/59
f 118/131/60 103/132/60 104/128/60
f 116/133/61 101/127/61 102/134/61
f 101/127/62 119/135/62 100/126/62
f 117/136/63 102/134/63 103/132/63
f 119/135/64 105/137/64 100/126/64
f 105/137/65 120/122/65 106/138/65
f 112/139/66 99/123/66 98/140/66
f 111/141/67 98/140/67 97/142/67
f 110/143/62 97/142/62 96/125/62
f 109/144/61 96/125/61 95/145/61
f 108/146/68 95/145/68 94/147/68
f 119/135/69 111/141/69 110/143/69
f 93/130/70 108/146/70 94/147/70
f 2/1/1 4/4/1 3/2/1
f 4/4/2 8/6/2 7/5/2
f 8/6/3 6/8/3 5/7/3
f 6/8/4 2/148/4 1/9/4
f 7/5/5 5/7/5 1/10/5
f 4/12/6 2/149/6 6/8/6
f 10/13/7 12/16/7 11/14/7
f 12/16/8 16/18/8 15/17/8
f 16/18/9 14/20/9 13/19/9
f 14/20/10 10/150/10 9/21/10
f 15/17/11 13/19/11 9/22/11
f 12/24/12 10/151/12 14/20/12
f 18/25/13 20/152/13 19/26/13
f 19/26/14 20/152/14 24/28/14
f 23/29/15 24/28/15 22/30/15
f 21/31/16 22/30/16 18/32/16
f 23/29/17 21/31/17 17/34/17
f 20/36/18 18/153/18 22/30/18
f 26/37/19 28/40/19 27/38/19
f 28/40/20 32/42/20 31/41/20
f 32/42/21 30/44/21 29/43/21
f 30/44/22 26/154/22 25/45/22
f 27/46/17 31/41/17 29/43/17
f 28/48/18 26/155/18 30/44/18
f 34/49/71 36/52/71 35/50/71
f 36/52/24 40/61/24 39/53/24
f 39/53/72 40/61/72 38/54/72
f 37/55/26 38/54/26 34/56/26
f 35/58/27 39/53/27 37/55/27
f 36/60/18 34/156/18 38/54/18
f 42/62/73 44/157/73 43/63/73
f 43/63/29 44/157/29 48/65/29
f 47/66/74 48/65/74 46/67/74
f 46/67/31 42/158/31 41/69/31
f 47/66/32 45/68/32 41/70/32
f 44/72/18 42/159/18 46/67/18
f 49/73/71 50/160/71 52/74/71
f 52/74/34 56/77/34 55/76/34
f 56/77/72 54/84/72 53/78/72
f 53/78/36 54/84/36 50/79/36
f 55/76/37 53/78/37 49/81/37
f 52/83/18 50/161/18 54/84/18
f 57/85/73 58/162/73 60/86/73
f 59/87/39 60/86/39 64/88/39
f 64/88/74 62/91/74 61/90/74
f 62/91/41 58/163/41 57/92/41
f 59/93/42 63/89/42 61/90/42
f 60/95/18 58/164/18 62/91/18
f 92/96/43 78/112/43 71/97/43
f 70/114/44 71/97/44 78/112/44
f 70/114/44 78/112/44 77/111/44
f 76/102/44 65/104/44 66/119/44
f 75/106/44 76/102/44 66/119/44
f 69/116/44 70/114/44 77/111/44
f 69/116/44 77/111/44 72/100/44
f 75/106/44 66/119/44 67/117/44
f 74/108/44 75/106/44 67/117/44
f 68/99/44 69/116/44 72/100/44
f 73/101/44 74/108/44 68/99/44
f 74/108/44 67/117/44 68/99/44
f 76/102/45 90/105/45 79/103/45
f 90/105/46 89/165/46 75/106/46
f 88/107/47 86/109/47 73/101/47
f 86/109/48 91/110/48 72/100/48
f 75/106/49 89/165/49 88/107/49
f 91/110/50 87/166/50 77/111/50
f 77/111/51 87/166/51 92/96/51
f 84/113/52 85/98/52 71/97/52
f 83/115/53 84/113/53 70/114/53
f 68/99/48 82/118/48 83/115/48
f 67/117/47 81/120/47 82/118/47
f 66/119/54 80/121/54 81/120/54
f 92/96/55 85/98/55 84/113/55
f 80/121/55 79/103/55 90/105/55
f 80/121/55 90/105/55 89/165/55
f 87/166/55 92/96/55 84/113/55
f 91/110/55 87/166/55 83/115/55
f 87/166/55 84/113/55 83/115/55
f 81/120/55 80/121/55 89/165/55
f 81/120/55 89/165/55 88/107/55
f 81/120/55 88/107/55 82/118/55
f 88/107/55 86/109/55 82/118/55
f 86/109/55 91/110/55 82/118/55
f 65/104/56 79/103/56 80/121/56
f 120/122/57 106/138/57 99/123/57
f 98/140/58 99/123/58 106/138/58
f 98/140/58 106/138/58 105/137/58
f 104/128/58 93/130/58 94/147/58
f 103/132/58 104/128/58 94/147/58
f 97/142/58 98/140/58 105/137/58
f 97/142/58 105/137/58 100/126/58
f 103/132/58 94/147/58 95/145/58
f 102/134/58 103/132/58 95/145/58
f 96/125/58 97/142/58 100/126/58
f 101/127/58 102/134/58 96/125/58
f 102/134/58 95/145/58 96/125/58
f 104/128/59 118/131/59 107/129/59
f 118/131/60 117/136/60 103/132/60
f 116/133/61 114/167/61 101/127/61
f 101/127/62 114/167/62 119/135/62
f 117/136/63 116/133/63 102/134/63
f 119/135/64 115/168/64 105/137/64
f 105/137/65 115/168/65 120/122/65
f 112/139/66 113/124/66 99/123/66
f 111/141/67 112/139/67 98/140/67
f 110/143/62 111/141/62 97/142/62
f 109/144/61 110/143/61 96/125/61
f 108/146/68 109/144/68 95/145/68
f 120/122/69 113/124/69 112/139/69
f 108/146/69 107/129/69 118/131/69
f 108/146/69 118/131/69 117/136/69
f 115/168/69 120/122/69 112/139/69
f 119/135/69 115/168/69 111/141/69
f 115/168/69 112/139/69 111/141/69
f 109/144/69 108/146/69 117/136/69
f 109/144/69 117/136/69 116/133/69
f 109/144/69 116/133/69 110/143/69
f 116/133/69 114/167/69 110/143/69
f 114/167/69 119/135/69 110/143/69
f 93/130/70 107/129/70 108/146/70
