# Blender v2.93.1 OBJ File: 'grass3.blend'
# www.blender.org
mtllib grass3.mtl
o grass_Plane.006
v 0.635393 -0.162245 -0.066810
v -0.635393 -0.162246 -0.066810
v 0.635393 -0.162245 2.015088
v -0.635393 -0.162246 2.015088
v 0.351903 0.450051 -0.066810
v -0.546678 -0.448530 -0.066810
v 0.351903 0.450051 2.015088
v -0.546678 -0.448530 2.015088
v 0.493932 -0.448530 -0.066810
v -0.404649 0.450051 -0.066810
v 0.493932 -0.448530 2.015088
v -0.404649 0.450051 2.015088
vt 0.001728 0.023656
vt 0.980852 0.997402
vt 0.980852 0.023656
vt 0.001728 0.023656
vt 0.980852 0.997402
vt 0.980852 0.023656
vt 0.001728 0.023656
vt 0.980852 0.997402
vt 0.980852 0.023656
vt 0.001728 0.997402
vt 0.001728 0.997402
vt 0.001728 0.997402
vn -0.0000 1.0000 -0.0000
vn -0.7071 0.7071 -0.0000
vn 0.7071 0.7071 -0.0000
usemtl grass
s off
f 2/1/1 3/2/1 1/3/1
f 6/4/2 7/5/2 5/6/2
f 10/7/3 11/8/3 9/9/3
f 2/1/1 4/10/1 3/2/1
f 6/4/2 8/11/2 7/5/2
f 10/7/3 12/12/3 11/8/3
