# Blender v2.93.1 OBJ File: 'grass2.blend'
# www.blender.org
mtllib grass2.mtl
o grass_Plane.006
v 0.635393 0.001075 -0.066810
v -0.635393 0.001075 -0.066810
v 0.635393 0.001075 2.015088
v -0.635393 0.001075 2.015088
v 0.001075 -0.635393 -0.066810
v 0.001075 0.635393 -0.066810
v 0.001075 -0.635393 2.015088
v 0.001075 0.635393 2.015088
vt 0.023910 0.045200
vt 0.980852 0.968677
vt 0.980852 0.045200
vt 0.023910 0.045200
vt 0.980852 0.968677
vt 0.980852 0.045200
vt 0.023909 0.968677
vt 0.023909 0.968677
vn -0.0000 1.0000 -0.0000
vn 1.0000 0.0000 -0.0000
usemtl grass
s off
f 2/1/1 3/2/1 1/3/1
f 6/4/2 7/5/2 5/6/2
f 2/1/1 4/7/1 3/2/1
f 6/4/2 8/8/2 7/5/2
