# Blender v2.93.1 OBJ File: 'house2-split.blend'
# www.blender.org
mtllib table2.mtl
o table_Cube.005
v 6.012241 2.089573 -3.972282
v 6.012241 3.165062 -3.972282
v 6.012244 2.089573 4.027719
v 6.012244 3.165062 4.027719
v -6.087752 2.089573 -3.972278
v -6.087752 3.165062 -3.972278
v -6.087749 2.089573 4.027722
v -6.087749 3.165062 4.027722
v 5.176506 2.089573 3.475164
v 5.176504 2.089573 -3.419727
v -5.252011 2.089573 3.475167
v -5.252013 2.089573 -3.419724
v 5.176506 1.338407 3.475164
v 5.176504 1.338407 -3.419727
v -5.252011 1.338407 3.475167
v -5.252013 1.338407 -3.419724
v 4.756021 1.338407 3.197158
v 4.756020 1.338407 -3.141720
v -4.831527 1.338407 3.197161
v -4.831529 1.338407 -3.141717
v 4.756021 1.977427 3.197158
v 4.756020 1.977427 -3.141720
v -4.831527 1.977427 3.197161
v -4.831529 1.977427 -3.141717
v -5.640201 -5.676262 -2.574297
v -5.640201 2.110684 -2.574297
v -5.640200 -5.676262 -3.586686
v -5.640200 2.110684 -3.586686
v -4.627811 -5.676262 -2.574297
v -4.627811 2.110684 -2.574297
v -4.627811 -5.676262 -3.586686
v -4.627811 2.110684 -3.586686
v 4.599269 -5.676262 -2.574296
v 4.599269 2.110684 -2.574296
v 4.599270 -5.676262 -3.586685
v 4.599270 2.110684 -3.586685
v 5.611658 -5.676262 -2.574297
v 5.611658 2.110684 -2.574297
v 5.611658 -5.676262 -3.586686
v 5.611658 2.110684 -3.586686
v 4.599269 -5.676262 3.624075
v 4.599269 2.110684 3.624075
v 4.599270 -5.676262 2.611686
v 4.599270 2.110684 2.611686
v 5.611658 -5.676262 3.624075
v 5.611658 2.110684 3.624075
v 5.611658 -5.676262 2.611686
v 5.611658 2.110684 2.611686
v -5.427511 -5.676262 3.624075
v -5.427511 2.110684 3.624075
v -5.427510 -5.676262 2.611686
v -5.427510 2.110684 2.611686
v -4.415122 -5.676262 3.624075
v -4.415122 2.110684 3.624075
v -4.415122 -5.676262 2.611686
v -4.415122 2.110684 2.611686
v -5.379027 -5.007844 3.088511
v -5.379027 -4.238417 3.088511
v -5.379027 -5.007844 -3.235947
v -5.379027 -4.238417 -3.235947
v 5.502215 -5.007844 3.088512
v 5.502215 -4.238417 3.088512
v 5.502215 -5.007844 -3.235947
v 5.502215 -4.238417 -3.235947
vt 0.625000 0.000000
vt 0.375000 0.250000
vt 0.375000 0.000000
vt 0.625000 0.250000
vt 0.375000 0.500000
vt 0.625000 0.500000
vt 0.375000 0.750000
vt 0.625000 0.750000
vt 0.375000 1.000000
vt 0.375000 0.750000
vt 0.875000 0.500000
vt 0.375000 0.500000
vt 0.375000 0.500000
vt 0.375000 0.250000
vt 0.375000 0.000000
vt 0.375000 1.000000
vt 0.375000 0.750000
vt 0.375000 0.750000
vt 0.375000 0.000000
vt 0.375000 1.000000
vt 0.375000 0.250000
vt 0.375000 0.500000
vt 0.375000 0.500000
vt 0.375000 0.250000
vt 0.375000 0.000000
vt 0.125000 0.750000
vt 0.125000 0.500000
vt 0.375000 0.000000
vt 0.375000 1.000000
vt 0.375000 0.750000
vt 0.375000 0.250000
vt 0.625000 0.000000
vt 0.375000 0.250000
vt 0.375000 0.000000
vt 0.625000 0.250000
vt 0.375000 0.500000
vt 0.625000 0.500000
vt 0.375000 0.750000
vt 0.625000 0.750000
vt 0.375000 1.000000
vt 0.125000 0.500000
vt 0.125000 0.750000
vt 0.875000 0.500000
vt 0.625000 0.000000
vt 0.375000 0.250000
vt 0.375000 0.000000
vt 0.625000 0.250000
vt 0.375000 0.500000
vt 0.625000 0.500000
vt 0.375000 0.750000
vt 0.625000 0.750000
vt 0.375000 1.000000
vt 0.125000 0.500000
vt 0.125000 0.750000
vt 0.875000 0.500000
vt 0.625000 0.000000
vt 0.375000 0.250000
vt 0.375000 0.000000
vt 0.625000 0.250000
vt 0.375000 0.500000
vt 0.625000 0.500000
vt 0.375000 0.750000
vt 0.625000 0.750000
vt 0.375000 1.000000
vt 0.125000 0.500000
vt 0.125000 0.750000
vt 0.875000 0.500000
vt 0.625000 0.000000
vt 0.375000 0.250000
vt 0.375000 0.000000
vt 0.625000 0.250000
vt 0.375000 0.500000
vt 0.625000 0.500000
vt 0.375000 0.750000
vt 0.625000 0.750000
vt 0.375000 1.000000
vt 0.125000 0.500000
vt 0.125000 0.750000
vt 0.875000 0.500000
vt 0.625000 0.000000
vt 0.375000 0.250000
vt 0.375000 0.000000
vt 0.625000 0.250000
vt 0.375000 0.500000
vt 0.625000 0.500000
vt 0.375000 0.750000
vt 0.625000 0.750000
vt 0.375000 1.000000
vt 0.125000 0.750000
vt 0.125000 0.500000
vt 0.875000 0.500000
vt 0.625000 1.000000
vt 0.875000 0.750000
vt 0.375000 1.000000
vt 0.625000 1.000000
vt 0.875000 0.750000
vt 0.625000 1.000000
vt 0.875000 0.750000
vt 0.625000 1.000000
vt 0.875000 0.750000
vt 0.625000 1.000000
vt 0.875000 0.750000
vt 0.625000 1.000000
vt 0.875000 0.750000
vn 1.0000 0.0000 -0.0000
vn 0.0000 0.0000 1.0000
vn -1.0000 0.0000 0.0000
vn -0.0000 0.0000 -1.0000
vn 0.0000 -1.0000 0.0000
vn 0.0000 1.0000 -0.0000
usemtl None
s off
f 2/1/1 3/2/1 1/3/1
f 4/4/2 7/5/2 3/2/2
f 8/6/3 5/7/3 7/5/3
f 6/8/4 1/9/4 5/7/4
f 1/9/5 12/10/5 5/7/5
f 4/11/6 6/8/6 8/6/6
f 12/10/3 15/12/3 11/13/3
f 7/5/5 9/14/5 3/2/5
f 3/2/5 10/15/5 1/3/5
f 5/7/5 11/13/5 7/5/5
f 14/16/5 20/17/5 16/18/5
f 9/14/1 14/19/1 10/15/1
f 10/20/4 16/18/4 12/10/4
f 11/13/2 13/21/2 9/14/2
f 20/17/1 23/22/1 19/23/1
f 15/12/5 17/24/5 13/21/5
f 15/12/5 20/17/5 19/23/5
f 13/21/5 18/25/5 14/19/5
f 23/22/5 22/26/5 21/27/5
f 17/24/3 22/28/3 18/25/3
f 18/29/2 24/30/2 20/17/2
f 19/23/4 21/31/4 17/24/4
f 26/32/3 27/33/3 25/34/3
f 28/35/4 31/36/4 27/33/4
f 32/37/1 29/38/1 31/36/1
f 30/39/2 25/40/2 29/38/2
f 27/41/5 29/38/5 25/42/5
f 28/43/6 30/39/6 32/37/6
f 34/44/3 35/45/3 33/46/3
f 36/47/4 39/48/4 35/45/4
f 40/49/1 37/50/1 39/48/1
f 38/51/2 33/52/2 37/50/2
f 35/53/5 37/50/5 33/54/5
f 36/55/6 38/51/6 40/49/6
f 42/56/3 43/57/3 41/58/3
f 44/59/4 47/60/4 43/57/4
f 48/61/1 45/62/1 47/60/1
f 46/63/2 41/64/2 45/62/2
f 43/65/5 45/62/5 41/66/5
f 44/67/6 46/63/6 48/61/6
f 50/68/3 51/69/3 49/70/3
f 52/71/4 55/72/4 51/69/4
f 56/73/1 53/74/1 55/72/1
f 54/75/2 49/76/2 53/74/2
f 51/77/5 53/74/5 49/78/5
f 52/79/6 54/75/6 56/73/6
f 58/80/3 59/81/3 57/82/3
f 60/83/4 63/84/4 59/81/4
f 64/85/1 61/86/1 63/84/1
f 62/87/2 57/88/2 61/86/2
f 63/84/5 57/89/5 59/90/5
f 60/91/6 62/87/6 64/85/6
f 2/1/1 4/4/1 3/2/1
f 4/4/2 8/6/2 7/5/2
f 8/6/3 6/8/3 5/7/3
f 6/8/4 2/92/4 1/9/4
f 1/9/5 10/20/5 12/10/5
f 4/11/6 2/93/6 6/8/6
f 12/10/3 16/18/3 15/12/3
f 7/5/5 11/13/5 9/14/5
f 3/2/5 9/14/5 10/15/5
f 5/7/5 12/10/5 11/13/5
f 14/16/5 18/29/5 20/17/5
f 9/14/1 13/21/1 14/19/1
f 10/20/4 14/16/4 16/18/4
f 11/13/2 15/12/2 13/21/2
f 20/17/1 24/30/1 23/22/1
f 15/12/5 19/23/5 17/24/5
f 15/12/5 16/18/5 20/17/5
f 13/21/5 17/24/5 18/25/5
f 23/22/5 24/30/5 22/26/5
f 17/24/3 21/31/3 22/28/3
f 18/29/2 22/94/2 24/30/2
f 19/23/4 23/22/4 21/31/4
f 26/32/3 28/35/3 27/33/3
f 28/35/4 32/37/4 31/36/4
f 32/37/1 30/39/1 29/38/1
f 30/39/2 26/95/2 25/40/2
f 27/41/5 31/36/5 29/38/5
f 28/43/6 26/96/6 30/39/6
f 34/44/3 36/47/3 35/45/3
f 36/47/4 40/49/4 39/48/4
f 40/49/1 38/51/1 37/50/1
f 38/51/2 34/97/2 33/52/2
f 35/53/5 39/48/5 37/50/5
f 36/55/6 34/98/6 38/51/6
f 42/56/3 44/59/3 43/57/3
f 44/59/4 48/61/4 47/60/4
f 48/61/1 46/63/1 45/62/1
f 46/63/2 42/99/2 41/64/2
f 43/65/5 47/60/5 45/62/5
f 44/67/6 42/100/6 46/63/6
f 50/68/3 52/71/3 51/69/3
f 52/71/4 56/73/4 55/72/4
f 56/73/1 54/75/1 53/74/1
f 54/75/2 50/101/2 49/76/2
f 51/77/5 55/72/5 53/74/5
f 52/79/6 50/102/6 54/75/6
f 58/80/3 60/83/3 59/81/3
f 60/83/4 64/85/4 63/84/4
f 64/85/1 62/87/1 61/86/1
f 62/87/2 58/103/2 57/88/2
f 63/84/5 61/86/5 57/89/5
f 60/91/6 58/104/6 62/87/6
