# Blender v2.93.1 OBJ File: 'table.blend'
# www.blender.org
mtllib table.mtl
o Cube
v 1.741996 0.551208 3.201081
v 1.764172 0.015834 3.192398
v 1.741996 0.551208 3.736456
v 1.764172 0.015834 3.772125
v 1.206621 0.551208 3.201081
v 1.184445 0.015834 3.192398
v 1.206621 0.551208 3.736456
v 1.184445 0.015834 3.772125
v 1.741996 3.668863 3.749949
v 1.206621 3.668863 3.749949
v 1.741996 3.668863 3.214575
v 1.206621 3.668863 3.214575
v 1.196533 2.269269 3.204486
v 1.752084 2.269269 3.204486
v 1.752084 2.269269 3.760037
v 1.196533 2.269269 3.760037
vt 0.315769 0.308467
vt 0.241103 0.500058
vt 0.239722 0.308467
vt 0.869885 0.073369
vt 0.793564 0.000000
vt 0.872921 0.000000
vt 0.709325 0.073321
vt 0.634851 0.000000
vt 0.714208 0.000000
vt 0.389000 0.579414
vt 0.309643 0.658771
vt 0.309643 0.579414
vt 0.476138 0.000000
vt 0.401664 0.073321
vt 0.396781 0.000000
vt 0.314388 0.073293
vt 0.238067 0.000000
vt 0.317424 0.000000
vt 0.073285 0.579862
vt 0.000000 0.653148
vt 0.000000 0.579862
vt 0.871266 0.308436
vt 0.796600 0.500010
vt 0.795219 0.308436
vt 0.712553 0.308457
vt 0.637887 0.500042
vt 0.636506 0.308457
vt 0.474483 0.308457
vt 0.399816 0.500042
vt 0.398436 0.308457
vt 0.636040 0.073321
vt 0.796600 0.073369
vt 0.241103 0.073293
vt 0.314388 0.500058
vt 0.389000 0.658771
vt 0.474949 0.073321
vt 0.073285 0.653148
vt 0.869885 0.500010
vt 0.711172 0.500042
vt 0.473102 0.500042
vn 0.0000 0.0072 -1.0000
vn 0.0000 0.0665 0.9978
vn -0.9991 0.0414 0.0000
vn 0.0000 -1.0000 0.0000
vn 0.9991 0.0414 0.0000
vn 0.0000 0.0162 -0.9999
vn 0.0000 1.0000 0.0000
vn 0.0000 0.0072 1.0000
vn -1.0000 0.0072 0.0000
vn 1.0000 0.0072 0.0000
vn 1.0000 -0.0059 0.0000
vn -1.0000 -0.0059 0.0000
vn 0.0000 -0.0137 0.9999
vn 0.0000 0.0020 -1.0000
usemtl wood
s off
f 13/1/1 11/2/1 14/3/1
f 3/4/2 8/5/2 4/6/2
f 7/7/3 6/8/3 8/9/3
f 2/10/4 8/11/4 6/12/4
f 2/13/5 3/14/5 4/15/5
f 5/16/6 2/17/6 6/18/6
f 12/19/7 9/20/7 11/21/7
f 15/22/8 10/23/8 16/24/8
f 16/25/9 12/26/9 13/27/9
f 14/28/10 9/29/10 15/30/10
f 3/14/11 14/28/11 15/30/11
f 7/7/12 13/27/12 5/31/12
f 3/4/13 16/24/13 7/32/13
f 5/16/14 14/3/14 1/33/14
f 13/1/1 12/34/1 11/2/1
f 3/4/2 7/32/2 8/5/2
f 7/7/3 5/31/3 6/8/3
f 2/10/4 4/35/4 8/11/4
f 2/13/5 1/36/5 3/14/5
f 5/16/6 1/33/6 2/17/6
f 12/19/7 10/37/7 9/20/7
f 15/22/8 9/38/8 10/23/8
f 16/25/9 10/39/9 12/26/9
f 14/28/10 11/40/10 9/29/10
f 3/14/11 1/36/11 14/28/11
f 7/7/12 16/25/12 13/27/12
f 3/4/13 15/22/13 16/24/13
f 5/16/14 13/1/14 14/3/14
o Cube.001
v -1.320400 0.551208 3.201081
v -1.298223 0.015834 3.192398
v -1.320400 0.551208 3.736456
v -1.298223 0.015834 3.772125
v -1.855774 0.551208 3.201081
v -1.877951 0.015834 3.192398
v -1.855774 0.551208 3.736456
v -1.877951 0.015834 3.772125
v -1.320400 3.668863 3.749949
v -1.855774 3.668863 3.749949
v -1.320400 3.668863 3.214575
v -1.855774 3.668863 3.214575
v -1.865862 2.269269 3.204486
v -1.310312 2.269269 3.204486
v -1.310312 2.269269 3.760037
v -1.865862 2.269269 3.760037
vt 0.395126 0.308467
vt 0.320460 0.500058
vt 0.319079 0.308467
vt 0.949242 0.073369
vt 0.872921 0.000000
vt 0.952278 0.000000
vt 0.629968 0.073321
vt 0.555494 0.000000
vt 0.634851 0.000000
vt 0.389000 0.500058
vt 0.309643 0.579414
vt 0.309643 0.500058
vt 0.555494 0.000000
vt 0.481020 0.073321
vt 0.476138 0.000000
vt 0.393745 0.073293
vt 0.317424 0.000000
vt 0.396781 0.000000
vt 0.238068 0.573383
vt 0.164782 0.646668
vt 0.164782 0.573383
vt 0.950623 0.308436
vt 0.875957 0.500010
vt 0.874576 0.308436
vt 0.633196 0.308457
vt 0.558530 0.500042
vt 0.557149 0.308457
vt 0.553839 0.308457
vt 0.479173 0.500042
vt 0.477792 0.308457
vt 0.556683 0.073321
vt 0.875957 0.073369
vt 0.320460 0.073293
vt 0.393745 0.500058
vt 0.389000 0.579414
vt 0.554306 0.073321
vt 0.238067 0.646668
vt 0.949242 0.500010
vt 0.631815 0.500042
vt 0.552459 0.500042
vn 0.0000 0.0072 -1.0000
vn 0.0000 0.0665 0.9978
vn -0.9991 0.0414 0.0000
vn 0.0000 -1.0000 0.0000
vn 0.9991 0.0414 0.0000
vn 0.0000 0.0162 -0.9999
vn 0.0000 1.0000 0.0000
vn 0.0000 0.0072 1.0000
vn -1.0000 0.0072 0.0000
vn 1.0000 0.0072 0.0000
vn 1.0000 -0.0059 0.0000
vn -1.0000 -0.0059 0.0000
vn 0.0000 -0.0137 0.9999
vn 0.0000 0.0020 -1.0000
usemtl wood
s off
f 29/41/15 27/42/15 30/43/15
f 19/44/16 24/45/16 20/46/16
f 23/47/17 22/48/17 24/49/17
f 18/50/18 24/51/18 22/52/18
f 18/53/19 19/54/19 20/55/19
f 21/56/20 18/57/20 22/58/20
f 28/59/21 25/60/21 27/61/21
f 31/62/22 26/63/22 32/64/22
f 32/65/23 28/66/23 29/67/23
f 30/68/24 25/69/24 31/70/24
f 19/54/25 30/68/25 31/70/25
f 23/47/26 29/67/26 21/71/26
f 19/44/27 32/64/27 23/72/27
f 21/56/28 30/43/28 17/73/28
f 29/41/15 28/74/15 27/42/15
f 19/44/16 23/72/16 24/45/16
f 23/47/17 21/71/17 22/48/17
f 18/50/18 20/75/18 24/51/18
f 18/53/19 17/76/19 19/54/19
f 21/56/20 17/73/20 18/57/20
f 28/59/21 26/77/21 25/60/21
f 31/62/22 25/78/22 26/63/22
f 32/65/23 26/79/23 28/66/23
f 30/68/24 27/80/24 25/69/24
f 19/54/25 17/76/25 30/68/25
f 23/47/26 32/65/26 29/67/26
f 19/44/27 31/62/27 32/64/27
f 21/56/28 29/41/28 30/43/28
o Cube.002
v 1.747156 0.551208 -3.812958
v 1.764172 0.015834 -3.832558
v 1.747156 0.551208 -3.267264
v 1.764172 0.015834 -3.252831
v 1.201461 0.551208 -3.812958
v 1.184445 0.015834 -3.832558
v 1.201461 0.551208 -3.267264
v 1.184445 0.015834 -3.252831
v 1.741996 3.668863 -3.275007
v 1.206621 3.668863 -3.275007
v 1.741996 3.668863 -3.810381
v 1.206621 3.668863 -3.810381
v 1.185475 3.241963 -3.831528
v 1.763142 3.241963 -3.831528
v 1.763142 3.241963 -3.253860
v 1.185475 3.241963 -3.253860
vt 0.475997 0.941505
vt 0.399816 0.999998
vt 0.396922 0.941505
vt 0.870592 0.573322
vt 0.793564 0.500010
vt 0.872921 0.500010
vt 0.716890 0.573352
vt 0.714208 0.500031
vt 0.158713 0.500506
vt 0.079357 0.579862
vt 0.079357 0.500506
vt 0.949595 0.573331
vt 0.952278 0.500010
vt 0.476138 0.500042
vt 0.399110 0.573373
vt 0.396781 0.500042
vt 0.238068 0.500097
vt 0.164782 0.573383
vt 0.164782 0.500097
vt 0.872780 0.941502
vt 0.796600 0.999990
vt 0.793705 0.941502
vt 0.793423 0.941509
vt 0.717243 1.000000
vt 0.714349 0.941509
vt 0.952137 0.941488
vt 0.875957 0.999979
vt 0.873062 0.941488
vt 0.874897 0.573331
vt 0.795894 0.573322
vt 0.473808 0.573373
vt 0.473102 0.999998
vt 0.791589 0.573352
vt 0.158713 0.579862
vt 0.238067 0.573383
vt 0.869885 0.999990
vt 0.790529 1.000000
vt 0.949242 0.999979
vn 0.0000 0.0495 -0.9988
vn 0.0000 0.0270 0.9996
vn -0.9995 0.0318 0.0000
vn 0.0000 -1.0000 0.0000
vn 0.9995 0.0318 0.0000
vn 0.0000 0.0366 -0.9993
vn 0.0000 1.0000 0.0000
vn 0.0000 0.0495 0.9988
vn -0.9988 0.0495 0.0000
vn 0.9988 0.0495 0.0000
vn 1.0000 -0.0059 0.0000
vn -1.0000 -0.0059 0.0000
vn 0.0000 -0.0050 1.0000
vn 0.0000 -0.0069 -1.0000
usemtl wood
s off
f 45/81/29 43/82/29 46/83/29
f 35/84/30 40/85/30 36/86/30
f 40/85/31 37/87/31 38/88/31
f 34/89/32 40/90/32 38/91/32
f 33/92/33 36/86/33 34/93/33
f 38/94/34 33/95/34 34/96/34
f 44/97/35 41/98/35 43/99/35
f 47/100/36 42/101/36 48/102/36
f 48/103/37 44/104/37 45/105/37
f 46/106/38 41/107/38 47/108/38
f 33/92/39 47/108/39 35/109/39
f 37/87/40 48/103/40 45/105/40
f 35/84/41 48/102/41 39/110/41
f 37/111/42 46/83/42 33/95/42
f 45/81/29 44/112/29 43/82/29
f 35/84/30 39/110/30 40/85/30
f 40/85/31 39/113/31 37/87/31
f 34/89/32 36/114/32 40/90/32
f 33/92/33 35/109/33 36/86/33
f 38/94/34 37/111/34 33/95/34
f 44/97/35 42/115/35 41/98/35
f 47/100/36 41/116/36 42/101/36
f 48/103/37 42/117/37 44/104/37
f 46/106/38 43/118/38 41/107/38
f 33/92/39 46/106/39 47/108/39
f 37/87/40 39/113/40 48/103/40
f 35/84/41 47/100/41 48/102/41
f 37/111/42 45/81/42 46/83/42
o Cube.003
v -1.295478 1.432422 -3.825951
v -1.275378 0.015834 -3.863792
v -1.295478 1.432422 -3.286423
v -1.275378 0.015834 -3.284065
v -1.835005 1.432422 -3.825951
v -1.855105 0.015834 -3.863792
v -1.835005 1.432422 -3.286423
v -1.855105 0.015834 -3.284065
v -1.297554 3.668863 -3.275007
v -1.832929 3.668863 -3.275007
v -1.297554 3.668863 -3.810381
v -1.832929 3.668863 -3.810381
v -1.843017 3.320157 -3.820469
v -1.287466 3.320157 -3.820469
v -1.287466 3.320157 -3.264919
v -1.843017 3.320157 -3.264919
vt 0.236413 0.452346
vt 0.161746 0.500097
vt 0.160365 0.452346
vt 0.790813 0.193910
vt 0.714208 0.000000
vt 0.793564 0.000000
vt 0.158711 0.000460
vt 0.083411 0.193958
vt 0.079355 0.000000
vt 0.079357 0.500506
vt 0.000000 0.579862
vt 0.000000 0.500506
vt 0.004056 0.306548
vt 0.079355 0.500046
vt 0.000000 0.500506
vt 0.235316 0.193975
vt 0.158711 0.000000
vt 0.238067 0.000000
vt 0.146571 0.579862
vt 0.073285 0.653148
vt 0.073285 0.579862
vt 0.791910 0.452291
vt 0.717243 0.500031
vt 0.715862 0.452291
vt 0.158711 0.452767
vt 0.083769 0.500081
vt 0.082665 0.452327
vt 0.003309 0.048179
vt 0.077698 0.000000
vt 0.079355 0.047738
vt 0.077909 0.306120
vt 0.157264 0.194386
vt 0.716959 0.193910
vt 0.161462 0.193975
vt 0.235032 0.500097
vt 0.079357 0.579862
vt 0.146571 0.653148
vt 0.790529 0.500031
vt 0.157053 0.500506
vt 0.004414 0.000425
vn 0.0000 0.0289 -0.9996
vn 0.0000 0.0017 1.0000
vn -0.9999 0.0142 0.0000
vn 0.0000 -1.0000 0.0000
vn 0.9999 0.0142 0.0000
vn 0.0000 0.0267 -0.9996
vn 0.0000 1.0000 0.0000
vn 0.0000 0.0289 0.9996
vn -0.9996 0.0289 0.0000
vn 0.9996 0.0289 0.0000
vn 1.0000 -0.0042 0.0000
vn -1.0000 -0.0042 0.0000
vn 0.0000 -0.0114 0.9999
vn 0.0000 0.0029 -1.0000
usemtl wood
s off
f 61/119/43 59/120/43 62/121/43
f 51/122/44 56/123/44 52/124/44
f 56/125/45 53/126/45 54/127/45
f 50/128/46 56/129/46 54/130/46
f 49/131/47 52/132/47 50/133/47
f 53/134/48 50/135/48 54/136/48
f 60/137/49 57/138/49 59/139/49
f 63/140/50 58/141/50 64/142/50
f 64/143/51 60/144/51 61/145/51
f 62/146/52 57/147/52 63/148/52
f 51/149/53 62/146/53 63/148/53
f 55/150/54 61/145/54 53/126/54
f 51/122/55 64/142/55 55/151/55
f 53/134/56 62/121/56 49/152/56
f 61/119/43 60/153/43 59/120/43
f 51/122/44 55/151/44 56/123/44
f 56/125/45 55/150/45 53/126/45
f 50/128/46 52/154/46 56/129/46
f 49/131/47 51/149/47 52/132/47
f 53/134/48 49/152/48 50/135/48
f 60/137/49 58/155/49 57/138/49
f 63/140/50 57/156/50 58/141/50
f 64/143/51 58/157/51 60/144/51
f 62/146/52 59/158/52 57/147/52
f 51/149/53 49/131/53 62/146/53
f 55/150/54 64/143/54 61/145/54
f 51/122/55 63/140/55 64/142/55
f 53/134/56 61/119/56 62/121/56
o Cube.004
v 1.002893 3.437865 4.482262
v 1.002893 3.854317 4.482262
v 1.002893 3.437865 -4.470511
v 1.002893 3.854317 -4.470511
v 1.956149 3.437865 4.454070
v 1.956149 3.854317 4.454070
v 1.956149 3.437865 -4.470511
v 1.956149 3.854317 -4.470511
v 0.901441 3.437865 -1.150885
v 1.002893 3.437865 2.973186
v 1.002893 3.865342 2.973186
v 0.901441 3.854317 -1.150885
v 1.956149 3.437865 2.973186
v 1.854696 3.437865 -1.150885
v 1.854696 3.854317 -1.150885
v 1.956149 3.865342 2.973186
v 1.588503 3.437865 -4.470511
v 1.495378 3.437865 -4.470511
v 1.597597 3.854317 -4.470511
v 1.660966 3.854317 -4.470511
v 1.604374 3.854317 -4.270036
v 1.537863 3.437865 -4.314513
vt 0.165229 0.768314
vt 0.180216 0.646668
vt 0.180475 0.768253
vt 0.108180 0.674940
vt 0.123440 0.656893
vt 0.123440 0.674940
vt 0.196121 0.700903
vt 0.180925 0.646678
vt 0.196167 0.646668
vt 0.077659 0.688093
vt 0.092919 0.653148
vt 0.092919 0.688093
vt 0.511067 0.555339
vt 0.476138 0.501075
vt 0.511067 0.500042
vt 0.518502 0.555340
vt 0.553432 0.501075
vt 0.553432 0.555340
vt 0.514785 0.706456
vt 0.549715 0.706456
vt 0.540542 0.820750
vt 0.479855 0.706456
vt 0.514785 0.706456
vt 0.491465 0.822380
vt 0.180642 0.973528
vt 0.196167 0.852062
vt 0.195885 0.973518
vt 0.180925 0.852072
vt 0.165229 0.973902
vt 0.180431 0.918693
vt 0.180475 0.973841
vt 0.389000 0.515427
vt 0.395169 0.500058
vt 0.396478 0.515427
vt 0.126095 0.653148
vt 0.136911 0.668408
vt 0.123440 0.668408
vt 0.390587 0.515537
vt 0.396350 0.530848
vt 0.389000 0.530906
vt 0.164971 0.646729
vt 0.108180 0.653148
vt 0.180475 0.700914
vt 0.077659 0.653148
vt 0.476138 0.555339
vt 0.518502 0.500042
vt 0.553432 0.828096
vt 0.542616 0.828096
vt 0.540294 0.828096
vt 0.518502 0.828096
vt 0.511067 0.828096
vt 0.493021 0.828096
vt 0.489609 0.828096
vt 0.476138 0.828096
vt 0.164782 0.918756
vt 0.389331 0.500068
vt 0.136911 0.653148
vt 0.396350 0.515427
vn -0.9995 0.0000 -0.0305
vn 0.0000 0.0000 -1.0000
vn 1.0000 0.0000 0.0000
vn 0.0296 0.0000 0.9996
vn 0.0000 -1.0000 0.0000
vn 0.0000 1.0000 0.0074
vn 0.0000 1.0000 0.0000
vn 0.0000 1.0000 -0.0027
vn 0.9995 0.0000 0.0305
vn 0.9997 0.0000 -0.0246
vn -1.0000 0.0000 0.0000
vn -0.9997 0.0000 0.0246
vn -0.9467 0.1797 -0.2672
vn 0.9875 -0.1541 -0.0334
vn 0.0002 1.0000 0.0073
vn -0.9384 0.1633 -0.3046
vn 0.9389 -0.2305 -0.2557
usemtl wood
s off
f 76/159/57 67/160/57 73/161/57
f 68/162/58 82/163/58 67/164/58
f 77/165/59 70/166/59 69/167/59
f 70/168/60 65/169/60 69/170/60
f 74/171/61 69/172/61 65/173/61
f 75/174/62 70/175/62 80/176/62
f 76/177/63 79/178/63 85/179/63
f 79/178/64 75/174/64 80/176/64
f 78/180/61 73/181/61 86/182/61
f 78/180/61 74/171/61 73/181/61
f 72/183/65 78/184/65 71/185/65
f 79/186/66 77/165/66 78/184/66
f 66/187/67 74/188/67 65/189/67
f 74/188/68 76/159/68 73/161/68
f 84/190/69 86/191/69 85/192/69
f 84/193/58 71/194/58 81/195/58
f 86/196/70 83/197/70 85/198/70
f 76/159/57 68/199/57 67/160/57
f 68/162/58 83/200/58 82/163/58
f 77/165/59 80/201/59 70/166/59
f 70/168/60 66/202/60 65/169/60
f 74/171/61 77/203/61 69/172/61
f 75/174/71 66/204/71 70/175/71
f 79/178/63 72/205/63 85/179/63
f 72/205/63 84/206/63 85/179/63
f 85/179/63 83/207/63 68/208/63
f 68/208/63 76/177/63 85/179/63
f 79/178/64 76/177/64 75/174/64
f 73/181/61 67/209/61 86/182/61
f 67/209/61 82/210/61 86/182/61
f 86/182/61 81/211/61 71/212/61
f 71/212/61 78/180/61 86/182/61
f 78/180/61 77/203/61 74/171/61
f 72/183/65 79/186/65 78/184/65
f 79/186/66 80/201/66 77/165/66
f 66/187/67 75/213/67 74/188/67
f 74/188/68 75/213/68 76/159/68
f 84/190/72 81/214/72 86/191/72
f 84/193/58 72/215/58 71/194/58
f 86/196/73 82/216/73 83/197/73
o Cube.005
v 0.927113 3.437862 -4.457333
v 0.927113 3.854314 -4.457333
v 0.927114 3.437867 4.495440
v 0.927114 3.854319 4.495440
v -0.026142 3.437862 -4.429141
v -0.026142 3.854314 -4.429141
v -0.026142 3.437867 4.495440
v -0.026141 3.854320 4.495440
v 0.950529 3.443717 1.743676
v 0.924836 3.437865 0.118410
v 0.924836 3.865342 0.118409
v 0.950529 3.860170 1.743676
v -0.023864 3.437865 0.025332
v 0.008214 3.443718 1.887683
v 0.008214 3.860170 1.887683
v -0.023864 3.865342 0.025331
v 0.588580 3.437867 4.495440
v 0.651886 3.646093 4.495440
v 0.715193 3.854319 4.495440
v 0.651824 3.854319 4.495440
v 0.708417 3.854319 4.341919
v 0.620202 3.646093 4.495440
vt 0.952492 0.551986
vt 0.967538 0.652816
vt 0.952278 0.652816
vt 0.030987 0.653148
vt 0.030987 0.660913
vt 0.023405 0.663233
vt 0.196167 0.810464
vt 0.211427 0.973689
vt 0.196167 0.973689
vt 0.077659 0.653148
vt 0.062399 0.688093
vt 0.062399 0.653148
vt 0.273772 0.663855
vt 0.238925 0.828112
vt 0.239009 0.660444
vt 0.309560 0.664314
vt 0.274713 0.500058
vt 0.309643 0.501091
vt 0.273855 0.727279
vt 0.308384 0.732556
vt 0.282727 0.822486
vt 0.251330 0.500058
vt 0.272596 0.595613
vt 0.238067 0.600890
vt 0.211427 0.646668
vt 0.196382 0.742221
vt 0.196167 0.646668
vt 0.211831 0.810464
vt 0.967538 0.324763
vt 0.952278 0.492430
vt 0.952278 0.324763
vt 0.967942 0.492430
vt 0.031619 0.661161
vt 0.030987 0.663235
vt 0.023405 0.664394
vt 0.030987 0.688078
vt 0.015824 0.688078
vt 0.015824 0.665553
vt 0.967752 0.551986
vt 0.015824 0.653148
vt 0.077659 0.688093
vt 0.273855 0.827078
vt 0.274797 0.667725
vt 0.309643 0.828112
vt 0.284801 0.828112
vt 0.282479 0.828112
vt 0.274713 0.828112
vt 0.238925 0.500058
vt 0.273855 0.500058
vt 0.211642 0.742221
vn 1.0000 -0.0000 0.0085
vn 0.0000 0.0000 1.0000
vn -1.0000 0.0000 0.0005
vn -0.0296 0.0000 -0.9996
vn -0.0000 -1.0000 0.0000
vn -0.0001 1.0000 -0.0025
vn 0.0003 1.0000 0.0023
vn 0.0004 1.0000 0.0028
vn -0.0003 -1.0000 -0.0022
vn -0.0004 -1.0000 0.0036
vn -0.9999 0.0000 -0.0132
vn -0.9999 0.0000 0.0172
vn 1.0000 -0.0000 0.0005
vn 0.9999 -0.0000 -0.0158
vn 0.0000 1.0000 0.0000
vn 0.0002 1.0000 -0.0024
vn 0.0005 1.0000 0.0022
vn -0.0015 1.0000 0.0021
vn -0.0003 1.0000 0.0032
vn -0.0000 -1.0000 -0.0021
vn 0.0000 -1.0000 -0.0022
vn 0.0005 -1.0000 0.0031
usemtl wood
s off
f 95/217/74 90/218/74 89/219/74
f 90/220/75 105/221/75 104/222/75
f 99/223/76 92/224/76 91/225/76
f 92/226/77 87/227/77 91/228/77
f 99/229/78 87/230/78 96/231/78
f 102/232/79 88/233/79 92/234/79
f 98/235/80 101/236/80 107/237/80
f 98/235/81 102/232/81 101/236/81
f 103/238/82 100/239/82 95/240/82
f 95/240/83 99/229/83 96/231/83
f 94/241/84 100/242/84 93/243/84
f 100/242/85 102/244/85 99/223/85
f 88/245/86 96/246/86 87/247/86
f 97/248/87 95/217/87 96/246/87
f 105/221/88 107/249/88 106/250/88
f 108/251/75 94/252/75 93/253/75
f 103/254/75 104/222/75 108/251/75
f 95/217/74 98/255/74 90/218/74
f 103/254/75 89/256/75 104/222/75
f 89/256/75 90/220/75 104/222/75
f 99/223/76 102/244/76 92/224/76
f 92/226/77 88/257/77 87/227/77
f 99/229/78 91/258/78 87/230/78
f 102/232/89 97/259/89 88/233/89
f 101/236/90 94/260/90 107/237/90
f 94/260/88 106/261/88 107/237/88
f 107/237/88 105/262/88 90/263/88
f 90/263/91 98/235/91 107/237/91
f 98/235/92 97/259/92 102/232/92
f 95/240/93 89/264/93 103/238/93
f 103/238/94 93/265/94 100/239/94
f 95/240/95 100/239/95 99/229/95
f 94/241/84 101/266/84 100/242/84
f 100/242/85 101/266/85 102/244/85
f 88/245/86 97/248/86 96/246/86
f 97/248/87 98/255/87 95/217/87
f 108/251/75 104/222/75 106/250/75
f 104/222/75 105/221/75 106/250/75
f 93/253/75 103/254/75 108/251/75
f 108/251/75 106/250/75 94/252/75
o Cube.006
v -0.971809 3.452614 4.482262
v -0.971809 3.869066 4.482262
v -0.982254 3.437865 -4.403884
v -0.982254 3.854317 -4.403884
v -0.028998 3.452614 4.454071
v -0.028998 3.869066 4.454071
v -0.028998 3.437865 -4.470510
v -0.028998 3.854317 -4.470510
v -1.003215 3.437865 -0.156976
v -1.003215 3.826442 -0.156976
v -0.410602 3.452614 4.507301
v -0.090292 3.437865 -0.156976
v -0.090292 3.826442 -0.156976
v -0.502469 3.869066 4.510048
v -0.887763 3.434743 -4.423356
v -0.884207 3.857438 -4.423356
vt 0.966516 0.822814
vt 0.952536 0.978455
vt 0.952278 0.822837
vt 0.062285 0.653148
vt 0.046910 0.656673
vt 0.047025 0.653148
vt 0.952536 0.652842
vt 0.967796 0.652816
vt 0.108180 0.653148
vt 0.092919 0.667195
vt 0.092920 0.653148
vt 0.226070 0.804752
vt 0.212093 0.973689
vt 0.211831 0.804729
vt 0.698501 0.658102
vt 0.700747 0.827064
vt 0.686764 0.829014
vt 0.630119 0.826674
vt 0.629351 0.671057
vt 0.662803 0.671057
vt 0.669279 0.501770
vt 0.700747 0.500042
vt 0.212093 0.646668
vt 0.108179 0.670563
vt 0.092920 0.687709
vt 0.062399 0.656802
vt 0.047026 0.688105
vt 0.630502 0.501060
vt 0.647699 0.500042
vt 0.967796 0.978429
vt 0.227353 0.973714
vt 0.666200 0.828097
vt 0.665049 0.658102
vt 0.665049 0.829115
vt 0.633712 0.827387
vt 0.665817 0.502484
vt 0.227353 0.646693
vt 0.108180 0.687709
vt 0.062286 0.688105
vt 0.665049 0.502094
vn -1.0000 0.0000 -0.0049
vn -0.2018 0.0000 -0.9794
vn -1.0000 0.0000 0.0068
vn 0.1382 0.0000 0.9904
vn 0.9999 0.0000 -0.0133
vn 0.0004 -1.0000 0.0032
vn 0.0000 1.0000 0.0066
vn 0.0036 -1.0000 0.0001
vn 0.9999 0.0000 0.0142
vn -0.0446 -0.0164 0.9989
vn -0.0548 0.0005 -0.9985
vn 0.0005 1.0000 -0.0092
vn -0.1948 0.0016 -0.9808
vn 0.1174 0.0193 0.9929
vn -0.0001 -1.0000 0.0032
vn 0.0000 -1.0000 0.0032
vn 0.0040 1.0000 0.0065
vn -0.0293 0.9995 0.0127
vn 0.0000 -1.0000 0.0000
vn -0.0316 -0.9995 0.0066
vn -0.0591 0.0000 0.9983
vn -0.0551 0.0000 -0.9985
vn -0.0011 1.0000 -0.0092
vn 0.0000 1.0000 -0.0091
usemtl wood
s off
f 118/267/96 111/268/96 117/269/96
f 112/270/97 123/271/97 111/272/97
f 118/267/98 109/273/98 110/274/98
f 114/275/99 119/276/99 113/277/99
f 121/278/100 113/279/100 120/280/100
f 120/281/101 113/282/101 119/283/101
f 112/284/102 118/285/102 121/286/102
f 123/287/103 115/288/103 120/281/103
f 115/289/104 121/278/104 120/280/104
f 122/290/105 109/291/105 119/276/105
f 124/292/106 115/293/106 123/271/106
f 118/285/107 110/294/107 122/295/107
f 118/267/96 112/296/96 111/268/96
f 112/270/108 124/292/108 123/271/108
f 118/267/98 117/269/98 109/273/98
f 114/275/109 122/290/109 119/276/109
f 121/278/100 114/297/100 113/279/100
f 109/298/110 117/299/110 119/283/110
f 117/299/111 120/281/111 119/283/111
f 121/286/112 116/300/112 124/301/112
f 124/301/113 112/284/113 121/286/113
f 117/299/114 111/302/114 120/281/114
f 111/302/115 123/287/115 120/281/115
f 115/289/104 116/303/104 121/278/104
f 122/290/116 110/304/116 109/291/116
f 124/292/117 116/305/117 115/293/117
f 114/306/118 121/286/118 122/295/118
f 121/286/119 118/285/119 122/295/119
o Cube.007
v -1.951292 3.437865 -4.470511
v -1.951292 3.854317 -4.470511
v -0.998037 3.437865 4.454071
v -0.998037 3.854317 4.454071
v -0.998037 3.437865 -4.470511
v -0.998037 3.854317 -4.470511
v -2.005832 3.437865 -3.010862
v -1.964637 3.406578 2.341798
v -1.964637 3.830503 2.341798
v -2.005832 3.854317 -3.010862
v -1.019304 3.406578 2.341798
v -1.052576 3.437865 -3.010862
v -1.052576 3.854317 -3.010862
v -1.019304 3.830503 2.341798
v -1.324473 3.440089 -4.470511
v -1.335481 3.862656 -4.470511
v -1.390964 3.851506 -4.407279
v -1.374120 3.430112 -4.451756
v -1.697284 3.437865 4.453578
v -1.967876 3.437865 4.392723
v -1.967876 3.855156 4.392723
v -1.697284 3.854317 4.453578
vt 0.968703 0.271258
vt 0.953448 0.324763
vt 0.953443 0.271260
vt 0.147443 0.657255
vt 0.161831 0.579863
vt 0.162977 0.657255
vt 0.628572 0.749659
vt 0.629351 0.827061
vt 0.603729 0.827044
vt 0.557004 0.577444
vt 0.556885 0.502290
vt 0.566800 0.500061
vt 0.578025 0.824746
vt 0.555494 0.773577
vt 0.590424 0.773577
vt 0.591644 0.577444
vt 0.627352 0.553528
vt 0.592423 0.553528
vt 0.615570 0.500729
vt 0.593932 0.749659
vt 0.146571 0.906876
vt 0.161831 0.853377
vt 0.161831 0.906876
vt 0.046879 0.653148
vt 0.031619 0.678615
vt 0.031619 0.653148
vt 0.967812 0.075149
vt 0.952278 0.075150
vt 0.015480 0.673750
vt 0.000345 0.676101
vt 0.000000 0.674308
vt 0.015506 0.688055
vt 0.000252 0.688055
vt 0.000286 0.653148
vt 0.046879 0.678615
vt 0.031619 0.688716
vt 0.953417 0.000001
vt 0.968708 0.324762
vt 0.146571 0.579863
vt 0.593813 0.824813
vt 0.592423 0.500042
vt 0.592423 0.827063
vt 0.580058 0.827062
vt 0.557493 0.827063
vt 0.594421 0.500042
vt 0.617389 0.500043
vt 0.629351 0.500042
vt 0.146571 0.853377
vt 0.015824 0.675698
vt 0.015540 0.653148
vt 0.046910 0.688716
vt 0.968708 0.000000
vn -0.9993 0.0000 -0.0373
vn 0.9999 0.0000 -0.0101
vn -0.0000 -0.9999 0.0148
vn 0.0058 0.9999 -0.0120
vn 0.0000 1.0000 -0.0020
vn 0.0000 1.0000 0.0044
vn 0.0000 -1.0000 0.0054
vn 0.0000 -1.0000 -0.0058
vn 0.9993 0.0000 0.0373
vn 1.0000 -0.0000 -0.0062
vn -0.0007 0.0000 1.0000
vn -1.0000 -0.0000 0.0077
vn -0.3667 0.0831 -0.9266
vn 0.0000 0.0000 -1.0000
vn 0.0337 0.1062 -0.9938
vn -0.2194 0.0000 0.9756
vn -1.0000 0.0000 -0.0016
vn -0.0034 -0.9999 0.0152
vn 0.0000 0.9999 -0.0113
vn -0.0072 1.0000 -0.0003
vn 0.0242 0.9807 0.1942
vn 0.0050 1.0000 0.0002
vn -0.0134 -0.9999 -0.0005
vn -0.0060 -0.8762 -0.4819
vn 0.0206 -0.9998 0.0008
vn -0.7498 -0.0195 -0.6614
vn 0.1121 0.0000 -0.9937
usemtl wood
s off
f 134/307/120 125/308/120 131/309/120
f 138/310/121 127/311/121 135/312/121
f 135/313/122 127/314/122 143/315/122
f 133/316/123 145/317/123 146/318/123
f 141/319/124 134/320/124 137/321/124
f 137/321/125 133/316/125 138/322/125
f 136/323/126 131/324/126 142/325/126
f 136/323/127 132/326/127 131/324/127
f 130/327/128 136/328/128 129/329/128
f 136/328/129 138/310/129 135/312/129
f 128/330/130 143/331/130 127/332/130
f 133/333/131 131/309/131 132/334/131
f 141/335/132 139/336/132 142/337/132
f 139/336/133 130/338/133 129/339/133
f 125/340/134 141/335/134 142/337/134
f 146/341/135 144/342/135 143/331/135
f 144/343/136 133/333/136 132/334/136
f 134/307/120 126/344/120 125/308/120
f 138/310/121 128/345/121 127/311/121
f 144/346/137 132/326/137 143/315/137
f 132/326/122 135/313/122 143/315/122
f 128/347/138 138/322/138 146/318/138
f 138/322/138 133/316/138 146/318/138
f 137/321/139 130/348/139 141/319/139
f 130/348/140 140/349/140 141/319/140
f 141/319/141 126/350/141 134/320/141
f 137/321/125 134/320/125 133/316/125
f 131/324/142 125/351/142 142/325/142
f 142/325/143 139/352/143 129/353/143
f 129/353/144 136/323/144 142/325/144
f 136/323/127 135/313/127 132/326/127
f 130/327/128 137/354/128 136/328/128
f 136/328/129 137/354/129 138/310/129
f 128/330/130 146/341/130 143/331/130
f 133/333/131 134/307/131 131/309/131
f 141/335/145 140/355/145 139/336/145
f 139/336/133 140/355/133 130/338/133
f 125/340/146 126/356/146 141/335/146
f 146/341/135 145/357/135 144/342/135
f 144/343/136 145/358/136 133/333/136
